<svg width="100" height="100" viewBox="0 0 100 100" fill="none" xmlns="http://www.w3.org/2000/svg">
<path fill-rule="evenodd" clip-rule="evenodd" d="M0 2C0 0.895429 0.895431 0 2 0H98C99.1046 0 100 0.895431 100 2V98C100 99.1046 99.1046 100 98 100H2C0.895429 100 0 99.1046 0 98V2ZM20 22C20 20.8954 20.8954 20 22 20H78C79.1046 20 80 20.8954 80 22V38C80 39.1046 79.1046 40 78 40H22C20.8954 40 20 39.1046 20 38V22ZM22 60C20.8954 60 20 60.8954 20 62V78C20 79.1046 20.8954 80 22 80H78C79.1046 80 80 79.1046 80 78V62C80 60.8954 79.1046 60 78 60H22Z" fill="black"/>
</svg>
