<svg width="100" height="100" viewBox="0 0 100 100" fill="none" xmlns="http://www.w3.org/2000/svg">
<mask id="path-1-inside-1_743_1645" fill="white">
<path fill-rule="evenodd" clip-rule="evenodd" d="M0 2C0 0.895429 0.895431 0 2 0H98C99.1046 0 100 0.895431 100 2V98C100 99.1046 99.1046 100 98 100H2C0.895429 100 0 99.1046 0 98V2ZM20 22C20 20.8954 20.8954 20 22 20H78C79.1046 20 80 20.8954 80 22V38C80 39.1046 79.1046 40 78 40H22C20.8954 40 20 39.1046 20 38V22ZM22 60C20.8954 60 20 60.8954 20 62V78C20 79.1046 20.8954 80 22 80H78C79.1046 80 80 79.1046 80 78V62C80 60.8954 79.1046 60 78 60H22Z"/>
</mask>
<path fill-rule="evenodd" clip-rule="evenodd" d="M0 2C0 0.895429 0.895431 0 2 0H98C99.1046 0 100 0.895431 100 2V98C100 99.1046 99.1046 100 98 100H2C0.895429 100 0 99.1046 0 98V2ZM20 22C20 20.8954 20.8954 20 22 20H78C79.1046 20 80 20.8954 80 22V38C80 39.1046 79.1046 40 78 40H22C20.8954 40 20 39.1046 20 38V22ZM22 60C20.8954 60 20 60.8954 20 62V78C20 79.1046 20.8954 80 22 80H78C79.1046 80 80 79.1046 80 78V62C80 60.8954 79.1046 60 78 60H22Z" fill="black"/>
<path d="M2 -2C-0.209137 -2 -2 -0.209143 -2 2H2V2V-2ZM98 -2H2V2H98V-2ZM102 2C102 -0.20914 100.209 -2 98 -2V2H102ZM102 98V2H98V98H102ZM98 102C100.209 102 102 100.209 102 98H98V102ZM2 102H98V98H2V102ZM-2 98C-2 100.209 -0.209144 102 2 102V98H2H-2ZM-2 2V98H2V2H-2ZM22 18C19.7909 18 18 19.7909 18 22H22V18ZM78 18H22V22H78V18ZM82 22C82 19.7909 80.2091 18 78 18V22H82ZM82 38V22H78V38H82ZM78 42C80.2091 42 82 40.2091 82 38H78V42ZM22 42H78V38H22V42ZM18 38C18 40.2091 19.7909 42 22 42V38H22H18ZM18 22V38H22V22H18ZM22 62V58C19.7909 58 18 59.7909 18 62H22ZM22 78V62H18V78H22ZM22 78H22H18C18 80.2091 19.7909 82 22 82V78ZM78 78H22V82H78V78ZM78 78V82C80.2091 82 82 80.2091 82 78H78ZM78 62V78H82V62H78ZM78 62H82C82 59.7909 80.2091 58 78 58V62ZM22 62H78V58H22V62Z" fill="white" mask="url(#path-1-inside-1_743_1645)"/>
</svg>
